# xmcd
#
# Track frame offsets:
#	150
#	16934
#	37463
#	57961
#	78983
#	97640
#	123129
#	138633
#	164909
#	189085
#	211683
#	234774
#	248077
#	261412
#	280594
#	305689
#	327894
#	342084
#
# Disc length: 4733 seconds
#
# Revision: 1
# Processed by: cddbd v1.5.2PL0 Copyright (c) Steve Scherf et al.
# Submitted via: audiograbber 1.83.01
#
DISCID=f2127b12
DTITLE=Various Artist - Trance -The Ultimate Collection Vol. 2 2008
DYEAR=2008
DGENRE=Trance
TTITLE0=Glenn Morrison - No Sudden Moves
TTITLE1=Marcus Schössow - Swedisch Beatbalss (Max Graham Remix)
TTITLE2=Markus Schulz feat. Dauby - Perfect (Agnelli and Nelson Remix)
TTITLE3=Joost Van Der Vleuten - Chemical X
TTITLE4=Sander Van Doorn - The Bass
TTITLE5=Leon Bolier - Ocean Drive Boulevard
TTITLE6=W and W - Mustang
TTITLE7=Embrace - Embrace
TTITLE8=4 Strings - Take Me Away (Into The Night) (Reward Vocal Remix)
TTITLE9=Georgia - Ode To '99
TTITLE10=Marcos - Reality (Andy Bagguley Remix)
TTITLE11=David Forbes - Razor
TTITLE12=Simon Patterson - Smack
TTITLE13=Sebastian Brandt pres. Guised - Never Alone
TTITLE14=Aly and Fila vs FKN feat. Jahala - How Long (Original Mix)
TTITLE15=Alex M.O.R.P.H. and Woody Van Eyden feat. Michelle Citrin - Turn It On
TTITLE16=El Cortez - Desert Rose (Club Mix)
TTITLE17=Bart Claessen - Catch Me (Playmo)
EXTD=
EXTT0=
EXTT1=
EXTT2=
EXTT3=
EXTT4=
EXTT5=
EXTT6=
EXTT7=
EXTT8=
EXTT9=
EXTT10=
EXTT11=
EXTT12=
EXTT13=
EXTT14=
EXTT15=
EXTT16=
EXTT17=
PLAYORDER=
